<svg xmlns="http://www.w3.org/2000/svg" xmlns:xlink="http://www.w3.org/1999/xlink" viewBox="0 0 1356.17 263.33"><defs><style>.cls-1{fill:url(#linear-gradient);}.cls-2{fill:url(#linear-gradient-2);}.cls-3{fill:url(#linear-gradient-3);}.cls-4{fill:#fff;}</style><linearGradient id="linear-gradient" x1="152.42" y1="74.69" x2="252.32" y2="74.69" gradientUnits="userSpaceOnUse"><stop offset="0" stop-color="#4a1aec"/><stop offset="0.23" stop-color="#461aec"/><stop offset="0.46" stop-color="#391aeb"/><stop offset="0.7" stop-color="#251bea"/><stop offset="0.94" stop-color="#081ce9"/><stop offset="1" stop-color="#001ce9"/></linearGradient><linearGradient id="linear-gradient-2" x1="202.37" y1="182.77" x2="404.74" y2="182.77" xlink:href="#linear-gradient"/><linearGradient id="linear-gradient-3" x1="0" y1="182.77" x2="202.37" y2="182.77" xlink:href="#linear-gradient"/></defs><g id="Layer_2" data-name="Layer 2"><g id="Layer_1-2" data-name="Layer 1"><path class="cls-1" d="M161.72,79l18.64,32.31,22,38.11,22-38.11L243,79a50,50,0,1,0-81.31,0Z"/><path class="cls-2" d="M353.1,153l-43.75-25.26a67.67,67.67,0,1,0,0,110.15l43.75-25.26,51.64-29.81Z"/><path class="cls-3" d="M134.71,115.1A67.37,67.37,0,0,0,95.4,127.69L51.64,153,0,182.77l51.64,29.81L95.4,237.84A67.66,67.66,0,1,0,134.71,115.1Z"/><polygon class="cls-4" points="202.37 218.67 210.27 233.1 224.7 241 210.27 248.9 202.37 263.33 194.47 248.9 180.04 241 194.47 233.1 202.37 218.67"/><path class="cls-4" d="M469.81,103.43h20.6L540,192.12l-1.9,2.06V103.43h18.38V218.59H535.75l-49.46-87.34,1.91-2.06v89.4H469.81Z"/><path class="cls-4" d="M626.35,218.67H607V103.43h19.33Z"/><path class="cls-4" d="M676.86,103.43H695.8V218.67H676.86ZM686,155.82h36.86a15.16,15.16,0,0,0,8-2.1,14.28,14.28,0,0,0,5.39-6,19.81,19.81,0,0,0,1.94-8.95,20.29,20.29,0,0,0-1.9-9,14.22,14.22,0,0,0-5.39-6,15.12,15.12,0,0,0-8.08-2.14H686V103.43h36.3a37.83,37.83,0,0,1,18.55,4.4,31.06,31.06,0,0,1,12.44,12.4,37.63,37.63,0,0,1,4.44,18.55,37.38,37.38,0,0,1-4.44,18.5,31,31,0,0,1-12.44,12.33A38.26,38.26,0,0,1,722.27,174H686Z"/><path class="cls-4" d="M800.67,103.43h18.94V218.67H800.67Zm9.12,52.39h36.85a15.17,15.17,0,0,0,8.05-2.1,14.32,14.32,0,0,0,5.38-6,19.68,19.68,0,0,0,1.95-8.95,20.29,20.29,0,0,0-1.91-9,14.13,14.13,0,0,0-5.38-6,15.13,15.13,0,0,0-8.09-2.14H809.79V103.43h36.3a37.79,37.79,0,0,1,18.54,4.4,31,31,0,0,1,12.45,12.4,37.73,37.73,0,0,1,4.43,18.55,37.48,37.48,0,0,1-4.43,18.5,30.91,30.91,0,0,1-12.45,12.33A38.22,38.22,0,0,1,846.09,174h-36.3Z"/><path class="cls-4" d="M962.85,173v45.65H944V173l-34.55-69.59H929.8l23.62,50.8L977,103.43H997.4Z"/><path class="cls-4" d="M1049.93,218.23a65.05,65.05,0,0,1-14.35-4.79,56.28,56.28,0,0,1-12.24-7.85l10.06-15.14a47,47,0,0,0,14.94,8.52,52.8,52.8,0,0,0,17.56,2.89q11.56,0,17.95-4.12a13.1,13.1,0,0,0,6.38-11.65V186a12.06,12.06,0,0,0-2.85-8.44,16.74,16.74,0,0,0-7.46-4.59,93.13,93.13,0,0,0-11.8-2.74,1.61,1.61,0,0,0-.48-.08,1.34,1.34,0,0,1-.48-.08l-1.42-.24a114.47,114.47,0,0,1-19-4.51A27.3,27.3,0,0,1,1034,156q-5.24-6.74-5.24-19.1v-.08q0-10.93,4.92-18.7A30.78,30.78,0,0,1,1048,106.28q9.36-4,22.51-4a56.62,56.62,0,0,1,12.41,1.39,64.62,64.62,0,0,1,12.2,4,67.56,67.56,0,0,1,11.61,6.62l-9.19,15.61a55.48,55.48,0,0,0-13.55-7.21,40,40,0,0,0-13.48-2.46q-10.93,0-16.92,4a12.82,12.82,0,0,0-6,11.3v.08q0,5.46,3.09,8.64a18.33,18.33,0,0,0,7.73,4.63,129,129,0,0,0,13,3.13,3.43,3.43,0,0,0,.59.12l.59.12.88.16c.31.05.6.1.87.16a94.23,94.23,0,0,1,17.87,5.15,28.19,28.19,0,0,1,12,9.67q4.83,6.66,4.83,18.15v.16q0,10.77-5.07,18.46a31.43,31.43,0,0,1-14.74,11.69q-9.67,4-23.3,4A76.81,76.81,0,0,1,1049.93,218.23Z"/><path class="cls-4" d="M1153.17,103.43h18.95V218.67h-18.95Zm12.92,67.45,48.51-67.45h23.62l-72,93.68Zm19.18-12.13,15.7-11.81,42.08,71.73H1220.3Z"/><path class="cls-4" d="M1321.61,173v45.65h-18.86V173l-34.56-69.59h20.37l23.62,50.8,23.62-50.8h20.37Z"/></g></g></svg>