<svg xmlns="http://www.w3.org/2000/svg" xmlns:xlink="http://www.w3.org/1999/xlink" viewBox="0 0 1356.17 263.44"><defs><style>.cls-1{fill:url(#linear-gradient);}.cls-2{fill:url(#linear-gradient-2);}.cls-3{fill:url(#linear-gradient-3);}</style><linearGradient id="linear-gradient" x1="152.34" y1="-458.72" x2="252.25" y2="-458.72" gradientTransform="matrix(1, 0, 0, -1, 0, -383.95)" gradientUnits="userSpaceOnUse"><stop offset="0" stop-color="#4a1aec"/><stop offset="0.23" stop-color="#461aec"/><stop offset="0.46" stop-color="#391aeb"/><stop offset="0.7" stop-color="#251bea"/><stop offset="0.94" stop-color="#081ce9"/><stop offset="1" stop-color="#001ce9"/></linearGradient><linearGradient id="linear-gradient-2" x1="202.36" y1="-566.88" x2="404.74" y2="-566.88" xlink:href="#linear-gradient"/><linearGradient id="linear-gradient-3" x1="0" y1="-566.83" x2="202.36" y2="-566.83" xlink:href="#linear-gradient"/></defs><g id="Layer_2" data-name="Layer 2"><g id="Layer_1-2" data-name="Layer 1"><path class="cls-1" d="M161.72,79.11l18.64,32.31,22,38.11,22-38.11L243,79.11a50,50,0,1,0-81.31,0Z"/><path class="cls-2" d="M353.1,153.11l-43.75-25.26a67.67,67.67,0,1,0,0,110.15l43.75-25.26,51.64-29.81Z"/><path class="cls-3" d="M134.71,115.21A67.33,67.33,0,0,0,95.4,127.8L51.64,153.11,0,182.88l51.64,29.81L95.4,238a67.66,67.66,0,1,0,39.31-122.74Z"/><polygon points="202.37 218.78 210.27 233.21 224.7 241.11 210.27 249.01 202.37 263.44 194.47 249.01 180.04 241.11 194.47 233.21 202.37 218.78"/><path d="M469.81,103.54h20.6L540,192.23l-1.9,2.06V103.54h18.38V218.7H535.75l-49.46-87.34,1.91-2.06v89.4H469.81Z"/><path d="M626.35,218.78H607V103.54h19.33Z"/><path d="M676.86,103.54H695.8V218.78H676.86ZM686,155.93h36.86a15.09,15.09,0,0,0,8-2.1,14.21,14.21,0,0,0,5.39-6,19.79,19.79,0,0,0,1.94-9,20.4,20.4,0,0,0-1.9-9,14.21,14.21,0,0,0-5.39-6,15.11,15.11,0,0,0-8.08-2.14H686v-18.2h36.3a37.8,37.8,0,0,1,18.55,4.4,31.12,31.12,0,0,1,12.44,12.4,37.6,37.6,0,0,1,4.44,18.55,37.38,37.38,0,0,1-4.44,18.5,31,31,0,0,1-12.44,12.33,38.27,38.27,0,0,1-18.58,4.39H686Z"/><path d="M800.67,103.54h18.94V218.78H800.67Zm9.12,52.39h36.85a15.18,15.18,0,0,0,8.05-2.1,14.31,14.31,0,0,0,5.38-6,19.77,19.77,0,0,0,1.95-9,20.24,20.24,0,0,0-1.91-9,14.12,14.12,0,0,0-5.38-6,15.15,15.15,0,0,0-8.09-2.14H809.79v-18.2h36.3a37.77,37.77,0,0,1,18.54,4.4,31,31,0,0,1,12.45,12.4,37.7,37.7,0,0,1,4.43,18.55,37.48,37.48,0,0,1-4.43,18.5,30.91,30.91,0,0,1-12.45,12.33,38.22,38.22,0,0,1-18.54,4.39h-36.3Z"/><path d="M962.85,173.11v45.65H944V173.11l-34.55-69.59H929.8l23.62,50.8L977,103.54h20.4Z"/><path d="M1049.93,218.34a64.9,64.9,0,0,1-14.35-4.79,56.58,56.58,0,0,1-12.24-7.85l10.06-15.14a47.13,47.13,0,0,0,14.94,8.52A52.75,52.75,0,0,0,1065.9,202q11.56,0,17.95-4.12a13.11,13.11,0,0,0,6.38-11.65v-.09a12.09,12.09,0,0,0-2.85-8.44,16.8,16.8,0,0,0-7.46-4.59,93.46,93.46,0,0,0-11.8-2.74,1.56,1.56,0,0,0-.48-.08,1.31,1.31,0,0,1-.48-.08l-1.42-.24a114.64,114.64,0,0,1-19-4.51,27.32,27.32,0,0,1-12.74-9.32q-5.24-6.74-5.24-19.1v-.08q0-10.94,4.92-18.7A30.78,30.78,0,0,1,1048,106.39q9.36-4,22.51-4a56.28,56.28,0,0,1,12.41,1.39,65.24,65.24,0,0,1,12.2,4,68,68,0,0,1,11.61,6.62L1097.54,130A55.3,55.3,0,0,0,1084,122.8a40,40,0,0,0-13.48-2.46q-10.93,0-16.92,4a12.81,12.81,0,0,0-6,11.3v.08q0,5.46,3.09,8.64a18.4,18.4,0,0,0,7.73,4.63,129.39,129.39,0,0,0,13,3.13,2.94,2.94,0,0,0,.59.12l.59.12.88.16c.31,0,.6.1.87.16a94.11,94.11,0,0,1,17.87,5.15,28.16,28.16,0,0,1,12,9.67q4.83,6.66,4.83,18.15v.16q0,10.77-5.07,18.46A31.42,31.42,0,0,1,1089.23,216q-9.68,4-23.3,4A76.75,76.75,0,0,1,1049.93,218.34Z"/><path d="M1153.17,103.54h18.95V218.78h-18.95ZM1166.09,171l48.51-67.45h23.62l-72,93.68Zm19.18-12.13,15.7-11.81,42.08,71.73H1220.3Z"/><path d="M1321.61,173.11v45.65h-18.86V173.11l-34.56-69.59h20.37l23.62,50.8,23.62-50.8h20.37Z"/></g></g></svg>