<svg xmlns="http://www.w3.org/2000/svg" xmlns:xlink="http://www.w3.org/1999/xlink" viewBox="0 0 14.36 9.34"><defs><style>.cls-1{fill:url(#linear-gradient);}.cls-2{fill:url(#linear-gradient-2);}.cls-3{fill:url(#linear-gradient-3);}.cls-4{fill:#fff;}</style><linearGradient id="linear-gradient" x1="5.41" y1="2.65" x2="8.95" y2="2.65" gradientUnits="userSpaceOnUse"><stop offset="0" stop-color="#4a1aec"/><stop offset="0.23" stop-color="#461aec"/><stop offset="0.46" stop-color="#391aeb"/><stop offset="0.7" stop-color="#251bea"/><stop offset="0.94" stop-color="#081ce9"/><stop offset="1" stop-color="#001ce9"/></linearGradient><linearGradient id="linear-gradient-2" x1="7.18" y1="6.48" x2="14.36" y2="6.48" xlink:href="#linear-gradient"/><linearGradient id="linear-gradient-3" x1="0" y1="6.48" x2="7.18" y2="6.48" xlink:href="#linear-gradient"/></defs><g id="Layer_2" data-name="Layer 2"><g id="Layer_1-2" data-name="Layer 1"><path class="cls-1" d="M5.74,2.8,6.4,4,7.18,5.3,8,4,8.62,2.8a1.73,1.73,0,0,0,.33-1,1.77,1.77,0,1,0-3.54,0A1.73,1.73,0,0,0,5.74,2.8Z"/><path class="cls-2" d="M12.53,5.43,11,4.53a2.43,2.43,0,0,0-1.4-.45,2.41,2.41,0,0,0,0,4.81A2.43,2.43,0,0,0,11,8.44l1.55-.9,1.83-1.06Z"/><path class="cls-3" d="M4.78,4.08a2.43,2.43,0,0,0-1.4.45l-1.55.9L0,6.48,1.83,7.54l1.55.9a2.43,2.43,0,0,0,1.4.45,2.41,2.41,0,0,0,0-4.81Z"/><polygon class="cls-4" points="7.18 7.76 7.46 8.27 7.97 8.55 7.46 8.83 7.18 9.34 6.9 8.83 6.39 8.55 6.9 8.27 7.18 7.76"/></g></g></svg>