<svg xmlns="http://www.w3.org/2000/svg" xmlns:xlink="http://www.w3.org/1999/xlink" width="61.555" height="65.924" viewBox="0 0 61.555 65.924"><defs><style>.a{stroke:#707070;opacity:0.85;fill:url(#a);}.b{fill:#fff;}</style><linearGradient id="a" x1="0.451" y1="-0.089" x2="0.575" y2="0.887" gradientUnits="objectBoundingBox"><stop offset="0" stop-color="#4a1aec"/><stop offset="1" stop-color="#3d07f3"/></linearGradient></defs><g transform="translate(-140.496 -1619.532)"><path class="a" d="M1222.788,280.627a49.608,49.608,0,0,1,38.787-23.975c27.64-2.443,18.936,46.728,13.285,53.447s-14.965,17.256-39.093,7.33S1222.788,280.627,1222.788,280.627Z" transform="translate(-1079.217 1363.469)"/><path class="b" d="M24.505.3H5.273A5.269,5.269,0,0,0,0,5.573V24.061a5.269,5.269,0,0,0,5.273,5.273H24.505a5.269,5.269,0,0,0,5.273-5.273V5.573A5.269,5.269,0,0,0,24.505.3Zm4.02,23.277a4.5,4.5,0,0,1-4.492,4.516H5.745a4.512,4.512,0,0,1-4.5-4.5V6.045a4.512,4.512,0,0,1,4.5-4.5H24.021a4.5,4.5,0,0,1,4.5,4.5Zm-16.75-9.69,3.474,6.675c.062.1.025.2-.074.2H13.016a.243.243,0,0,1-.261-.161c-.794-1.638-1.6-3.276-2.432-5.038H10.3c-.744,1.663-1.563,3.412-2.357,5.05a.238.238,0,0,1-.223.136H5.67c-.124,0-.136-.1-.074-.174L9,14.1,5.708,7.546a.1.1,0,0,1,.074-.174H7.916a.2.2,0,0,1,.223.136c.782,1.638,1.576,3.325,2.32,4.975h.025C11.2,10.847,12,9.147,12.768,7.521c.062-.1.1-.161.223-.161h2c.1,0,.136.074.074.174l-3.288,6.353Zm4.082,2.022a4.853,4.853,0,0,1,4.975-5.149,5.5,5.5,0,0,1,.645.025V7.5a.124.124,0,0,1,.124-.124h1.96c.1,0,.124.037.124.1v11.39a8.838,8.838,0,0,0,.062,1.216c0,.074-.025.1-.1.136a7.391,7.391,0,0,1-3.176.72c-2.692.012-4.616-1.65-4.616-5.025Zm5.621-3.176a1.876,1.876,0,0,0-.72-.124c-1.563,0-2.655,1.2-2.655,3.2,0,2.283,1.117,3.2,2.519,3.2a2.341,2.341,0,0,0,.856-.136Z" transform="translate(156.383 1637.681)"/></g></svg>