<svg xmlns="http://www.w3.org/2000/svg" xmlns:xlink="http://www.w3.org/1999/xlink" viewBox="0 0 1204.81 1290.63"><defs><style>.cls-1{stroke:#707070;stroke-width:19.58px;opacity:0.85;isolation:isolate;fill:url(#linear-gradient);}.cls-2{fill:#fff;}</style><linearGradient id="linear-gradient" x1="-1273.91" y1="3646.33" x2="-1271.48" y2="3627.22" gradientTransform="matrix(60.55, 0, 0, -64.93, 77647.59, 236658.41)" gradientUnits="userSpaceOnUse"><stop offset="0" stop-color="#4a1aec"/><stop offset="1" stop-color="#3d07f3"/></linearGradient></defs><g id="Layer_2" data-name="Layer 2"><g id="Layer_1-2" data-name="Layer 1"><path class="cls-1" d="M60.13,480.84A971.1,971.1,0,0,1,819.41,11.51c541.08-47.82,370.69,914.73,260.07,1046.26s-293,337.8-765.27,143.49S60.13,480.84,60.13,480.84Z"/><path class="cls-2" d="M482.48,848.5V693.15c8.29.81,18.06,1.23,28.72,1.23,65,0,117.56-17.14,152-49.6C691.43,618,707,578,707,532.32c0-44.39-18.56-84.53-50.91-110.11-31.79-25.43-78.51-37.79-142.83-37.79-55.71,0-102.79,3.2-139.94,9.53a6.32,6.32,0,0,0-5.27,6.24V848.5a6.32,6.32,0,0,0,6.33,6.33h101.8A6.32,6.32,0,0,0,482.48,848.5Zm0-247.24V477.38c6.21-1.2,17.89-2.77,36.14-2.77,47,0,73.9,22,73.9,60.41,0,42.47-30.65,67.83-82,67.83C498.21,602.85,489.44,602.36,482.48,601.26Z"/><path class="cls-2" d="M891.45,641c-41.94-14.67-49-21.66-49-31.77,0-18,20.53-20.64,32.77-20.64,26,0,53.12,9.75,68.44,18.1a6.32,6.32,0,0,0,9.15-4L971,531.88a6.33,6.33,0,0,0-3.3-7.24c-18.9-9.45-54-19.54-95.87-19.54-82.72,0-140.49,47-140.49,114.08-.56,32.75,16,77.59,98,105.21,39.85,13.29,44.21,20.19,44.21,31.75,0,5.27,0,21.31-37.49,21.31-28.08,0-66-12.47-85-24a6.33,6.33,0,0,0-9.43,3.88l-18.2,73.49a6.34,6.34,0,0,0,3.13,7.09c27.85,15.05,67.77,23.68,109.53,23.68,92.06,0,149.25-43.24,149.25-112.93C984.62,696.26,955.65,663.05,891.45,641Z"/></g></g></svg>