<svg xmlns="http://www.w3.org/2000/svg" xmlns:xlink="http://www.w3.org/1999/xlink" width="61.555" height="65.924" viewBox="0 0 61.555 65.924"><defs><style>.a{stroke:#707070;opacity:0.85;fill:url(#a);}.b{fill:#fff;}</style><linearGradient id="a" x1="0.451" y1="-0.089" x2="0.575" y2="0.887" gradientUnits="objectBoundingBox"><stop offset="0" stop-color="#4a1aec"/><stop offset="1" stop-color="#3d07f3"/></linearGradient></defs><g transform="translate(-509.496 -1371.532)"><path class="a" d="M1222.788,280.627a49.608,49.608,0,0,1,38.787-23.975c27.64-2.443,18.936,46.728,13.285,53.447s-14.965,17.256-39.093,7.33S1222.788,280.627,1222.788,280.627Z" transform="translate(-710.217 1115.469)"/><g transform="translate(530.511 1376.083)"><path class="b" d="M.274,47.513H4.888a.274.274,0,0,0,.264-.2L6.5,42.462H11.72l1.46,4.856a.274.274,0,0,0,.263.2h4.79a.274.274,0,0,0,.274-.274.27.27,0,0,0-.024-.113L12.39,27.479a.274.274,0,0,0-.262-.193H6.289a.274.274,0,0,0-.262.194L.012,47.158a.274.274,0,0,0,.262.354Zm10.641-8.928H7.293l1.071-3.827c.194-.69.378-1.505.556-2.295q.061-.272.12-.533c.235.945.494,1.967.753,2.83Z" transform="translate(0 -6.641)"/><path class="b" d="M185.062,76.551a.274.274,0,0,0-.274.274V91.1a.274.274,0,0,0,.274.274H189.5a.274.274,0,0,0,.274-.274V76.825a.274.274,0,0,0-.274-.274Z" transform="translate(-164.528 -50.505)"/><path class="b" d="M186.3,24.842a2.512,2.512,0,1,0,.029-5.015,2.671,2.671,0,0,0-1.94.754,2.428,2.428,0,0,0-.67,1.768,2.387,2.387,0,0,0,.671,1.737A2.631,2.631,0,0,0,186.3,24.842Z" transform="translate(-163.574 0)"/></g></g></svg>