<svg xmlns="http://www.w3.org/2000/svg" xmlns:xlink="http://www.w3.org/1999/xlink" width="61.555" height="65.924" viewBox="0 0 61.555 65.924"><defs><style>.a{stroke:#707070;opacity:0.85;fill:url(#a);}.b{fill:#fff;}</style><linearGradient id="a" x1="0.451" y1="-0.089" x2="0.575" y2="0.887" gradientUnits="objectBoundingBox"><stop offset="0" stop-color="#4a1aec"/><stop offset="1" stop-color="#3d07f3"/></linearGradient></defs><g transform="translate(-140.496 -1872.498)"><path class="a" d="M1222.788,280.627a49.608,49.608,0,0,1,38.787-23.975c27.64-2.443,18.936,46.728,13.285,53.447s-14.965,17.256-39.093,7.33S1222.788,280.627,1222.788,280.627Z" transform="translate(-1079.217 1616.435)"/><g transform="translate(155.438 1887.711)"><path class="b" d="M21.085,12.5a5.251,5.251,0,0,0,0-10.5h-10.5a5.251,5.251,0,0,0,0,10.5,5.251,5.251,0,1,0,0,10.5,5.251,5.251,0,0,0,0,10.5,5.253,5.253,0,0,0,5.25-5.251V12.5Z" transform="translate(0 0)"/><circle class="b" cx="5.25" cy="5.25" r="5.25" transform="translate(15.836 12.503)"/></g></g></svg>