<svg xmlns="http://www.w3.org/2000/svg" xmlns:xlink="http://www.w3.org/1999/xlink" width="61.555" height="65.924" viewBox="0 0 61.555 65.924"><defs><style>.a{stroke:#707070;opacity:0.85;fill:url(#a);}.b{fill:none;}.c{fill:#fff;}</style><linearGradient id="a" x1="0.451" y1="-0.089" x2="0.575" y2="0.887" gradientUnits="objectBoundingBox"><stop offset="0" stop-color="#4a1aec"/><stop offset="1" stop-color="#3d07f3"/></linearGradient></defs><g transform="translate(-509.496 -1872.498)"><path class="a" d="M1222.788,280.627a49.608,49.608,0,0,1,38.787-23.975c27.64-2.443,18.936,46.728,13.285,53.447s-14.965,17.256-39.093,7.33S1222.788,280.627,1222.788,280.627Z" transform="translate(-710.217 1616.435)"/><g transform="translate(521.789 1890)"><path class="b" d="M0,0H36.967V36.967H0Z"/><path class="c" d="M16.862,26.919,9.746,24.984l-.505-5.459h3.5l.243,2.84,3.881,1.027,3.881-1.027.4-4.414H9.1L8.121,7.665H25.6l-.35,3.4H11.967l.314,3.475H24.938l-.961,10.44ZM3,2H30.725l-2.5,27.725L16.862,32.805,5.5,29.725ZM6.37,5.081,8.376,27.313l8.487,2.3,8.487-2.3L27.355,5.081H6.37Z" transform="translate(1.621 1.081)"/></g></g></svg>