<svg xmlns="http://www.w3.org/2000/svg" xmlns:xlink="http://www.w3.org/1999/xlink" width="61.555" height="65.924" viewBox="0 0 61.555 65.924"><defs><style>.a{stroke:#707070;opacity:0.85;fill:url(#a);}.b{fill:#fff;}</style><linearGradient id="a" x1="0.451" y1="-0.089" x2="0.575" y2="0.887" gradientUnits="objectBoundingBox"><stop offset="0" stop-color="#4a1aec"/><stop offset="1" stop-color="#3d07f3"/></linearGradient></defs><g transform="translate(-140.496 -1371.532)"><path class="a" d="M1222.788,280.627a49.608,49.608,0,0,1,38.787-23.975c27.64-2.443,18.936,46.728,13.285,53.447s-14.965,17.256-39.093,7.33S1222.788,280.627,1222.788,280.627Z" transform="translate(-1079.217 1115.469)"/><path class="b" d="M9.633,7.968h3.751V18.482c0,4.738-2.271,6.392-5.9,6.392a9.83,9.83,0,0,1-2.764-.4l.42-3.036a6.181,6.181,0,0,0,1.925.3c1.58,0,2.567-.716,2.567-3.282V7.968Zm7.008,12.785a9.51,9.51,0,0,0,4.171,1.037c1.728,0,2.641-.716,2.641-1.826,0-1.012-.79-1.629-2.789-2.32-2.764-.987-4.59-2.517-4.59-4.961,0-2.838,2.394-4.985,6.293-4.985a9.73,9.73,0,0,1,4.245.839l-.839,3.011a7.779,7.779,0,0,0-3.455-.79c-1.629,0-2.419.765-2.419,1.6,0,1.061.913,1.53,3.085,2.369,2.937,1.086,4.294,2.616,4.294,4.985,0,2.789-2.122,5.158-6.688,5.158a10.841,10.841,0,0,1-4.714-1.037l.765-3.085Z" transform="translate(155.273 1388.212)"/></g></svg>