<svg xmlns="http://www.w3.org/2000/svg" xmlns:xlink="http://www.w3.org/1999/xlink" viewBox="0 0 1204.81 1290.63"><defs><style>.cls-1{stroke:#707070;stroke-width:19.58px;opacity:0.85;isolation:isolate;fill:url(#linear-gradient);}.cls-2{fill:#fff;}</style><linearGradient id="linear-gradient" x1="-1273.91" y1="3646.33" x2="-1271.48" y2="3627.22" gradientTransform="matrix(60.55, 0, 0, -64.93, 77647.59, 236658.41)" gradientUnits="userSpaceOnUse"><stop offset="0" stop-color="#4a1aec"/><stop offset="1" stop-color="#3d07f3"/></linearGradient></defs><g id="Layer_2" data-name="Layer 2"><g id="Layer_1-2" data-name="Layer 1"><path class="cls-1" d="M60.13,480.84A971.1,971.1,0,0,1,819.41,11.51c541.08-47.82,370.69,914.73,260.07,1046.26s-293,337.8-765.27,143.49S60.13,480.84,60.13,480.84Z"/><path class="cls-2" d="M781.25,559.65c-43.59-191.92-146.42-255-157.46-279.11-12.15-17-25.3-49.42-25.3-49.42-.07.65-.14,1.07-.17,1.69v.45h0c-.07.51-.1.86-.14,1.34v.52h-.07c0,.34-.06.62-.06.9v.89h-.11a5.77,5.77,0,0,1-.1.87v.72h-.07a2.48,2.48,0,0,1-.07.73v.69h-.07a10.15,10.15,0,0,1-.07,1.1v.07c-.1.59-.2,1.17-.31,1.73v.27h-.07a2.13,2.13,0,0,0-.1.42v.58h-.1v.76h-.18v.62h-.17v.73h-.14v.65h-.14v.59h-.2v.48H596v.63h-.14V249h-.17v.45h-.11V250h-.13s0,.1,0,.13v.35h-.1a.39.39,0,0,0,0,.21v.2h-.06a1.35,1.35,0,0,0-.07.35c-.11.24-.25.48-.35.72V252a1.07,1.07,0,0,0-.17.24v.28h-.14v.28h-.17v.27h-.11v.35H594v.48h-.14v.14h-.14v.28h-.14v.37h-.14V255h-.2v.38h-.14v.28h-.17v.27h-.11v.35h-.17v.27h-.14v.21h-.14V257h-.2v.31H592v.21h-.17v.27h-.14v.38h-.17v.14h-.11v.28h-.2v.13h-.14v.35h-.14v.14h-.14v.27h-.17v.21h-.1l-.07.14V260h-.07c0,.06-.07.06-.07.13v0h0a.62.62,0,0,1-.13.24v.1h0c-.17.21-.27.42-.41.62v0a1.74,1.74,0,0,0-.31.34v.07h0s-.1.07-.1.11v.1h-.07l-.1.1v0h0s-.07.07-.1.14v.13h-.11l-.07.07v.07h-.06c0,.07-.07.07-.07.11v.1h-.14s0,.07-.07.1v.21h-.1V263h-.14v.21H588v.27h-.17v-.27h-.18v.13h-.13v.21h-.18v.28h-.17V264h-.14v.2h-.13v.14h-.14v.28h-.21v.13h-.14v.21h-.17v.14h-.14v.17H586v.35h-.07v.14h-.21v.17h-.13V266h-.14v.14h-.18v.34h-.13v.14h-.18v.14h-.13v.2h-.18v.14h-.17v.14h-.14v.14h-.14v.34H584v.18h-.21V268h-.14v.14h-.17v.21h-.14v.14h-.17v.24h-.14v.14h-.21v.2h-.07v.14h-.13v.14h-.18v.14h-.13v.21h-.18v.13h-.1a.11.11,0,0,0,0,.07V270H582l-.14.14a.55.55,0,0,1-.14.1v.21h-.14v.17h-.14v.14h-.13v.14h-.11l-.1.1v.11H581l-.07.06v.11h-.07a3.37,3.37,0,0,1-.48.55c-.07.07-.28.24-.42.35a11.79,11.79,0,0,0-1.34,1.1,6.07,6.07,0,0,0-.76.59v0h0c-.55.45-1.07.86-1.69,1.35v0l-2.55,2.14v0h-.07c-2,1.62-4,3.45-6.42,5.49v0h0c-5.83,5.11-12.77,11.67-20.53,19.61L546,303l-.14.14c-46.94,48.57-120.91,149.77-128.71,313.31a360.29,360.29,0,0,0,.2,39.49v.31c3.77,64.44,24,119.46,49.29,164.16v0a432.12,432.12,0,0,0,32,48.5v0c38,50.22,76.87,80,86.77,87.18,15.22,35.32,13.81,95.93,13.81,95.93l22.23,7.42s-4.52-58.72,1.83-87c2-8.87,6.62-16.43,12-22.85a288.38,288.38,0,0,0,27.51-22.27c.62-.65,1-1.24,1.52-1.86C716.81,876.54,814.87,756,781.25,559.65Z"/></g></g></svg>