<svg xmlns="http://www.w3.org/2000/svg" xmlns:xlink="http://www.w3.org/1999/xlink" viewBox="0 0 1204.81 1290.63"><defs><style>.cls-1{stroke:#707070;stroke-width:19.58px;opacity:0.85;isolation:isolate;fill:url(#linear-gradient);}.cls-2{fill:#fff;}</style><linearGradient id="linear-gradient" x1="-1273.91" y1="3646.33" x2="-1271.48" y2="3627.22" gradientTransform="matrix(60.55, 0, 0, -64.93, 77647.59, 236658.41)" gradientUnits="userSpaceOnUse"><stop offset="0" stop-color="#4a1aec"/><stop offset="1" stop-color="#3d07f3"/></linearGradient></defs><g id="Layer_2" data-name="Layer 2"><g id="Layer_1-2" data-name="Layer 1"><path class="cls-1" d="M60.13,480.84A971.1,971.1,0,0,1,819.41,11.51c541.08-47.82,370.69,914.73,260.07,1046.26s-293,337.8-765.27,143.49S60.13,480.84,60.13,480.84Z"/><path class="cls-2" d="M658.34,1055.21a62.84,62.84,0,0,1-29.83-7.8l-94.26-56c-14.1-7.84-7-10.7-2.78-12.13,19.17-6.38,22.73-7.77,42.55-19.06,2.16-1.43,5-.77,7.15.66l72.26,43.28c2.86,1.39,6.42,1.39,8.55,0L944.81,840.47c2.86-1.39,4.26-4.25,4.26-7.81V505.8c0-3.51-1.4-6.37-4.26-7.76L662,335c-2.83-1.42-6.38-1.42-8.55,0L370.52,498c-2.82,1.39-4.25,5-4.25,7.77V832.58c0,2.82,1.43,6.42,4.25,7.81l77.29,44.71c41.81,21.18,68.09-3.67,68.09-28.4V534.17a8.63,8.63,0,0,1,8.5-8.54h36.17a8.67,8.67,0,0,1,8.5,8.54V856.74c0,56-30.45,88.65-83.62,88.65-16.31,0-29.06,0-65.24-17.78l-74.39-42.47A59.9,59.9,0,0,1,316,833.36V506.5a59.78,59.78,0,0,1,29.79-51.75L628.55,291a63.24,63.24,0,0,1,59.66,0L971,454.75a59.65,59.65,0,0,1,29.79,51.75V833.36A60,60,0,0,1,971,885.14l-282.77,163.7A73.35,73.35,0,0,1,658.34,1055.21Zm87.18-224.75c-124,0-149.55-56.73-149.55-104.88a8.65,8.65,0,0,1,8.5-8.54h36.87c4.25,0,7.77,2.82,7.77,7.11,5.68,37.52,21.95,56,97.15,56,59.51,0,85.09-13.52,85.09-45.41,0-18.43-7.14-31.88-100-41.07-77.25-7.73-125.44-24.85-125.44-86.49,0-57.39,48.19-91.43,129-91.43,90.7,0,135.38,31.26,141,99.23a11.44,11.44,0,0,1-2.17,6.38c-1.43,1.39-3.51,2.82-5.64,2.82H831.35a8.19,8.19,0,0,1-7.8-6.34c-8.54-39.1-30.49-51.78-88.58-51.78-65.27,0-73.07,22.69-73.07,39.69,0,20.52,9.16,26.9,97.15,38.26,87.18,11.32,128.3,27.63,128.3,88.65C886.58,795.06,835.61,830.46,745.52,830.46Z"/></g></g></svg>