<svg xmlns="http://www.w3.org/2000/svg" xmlns:xlink="http://www.w3.org/1999/xlink" width="61.555" height="65.924" viewBox="0 0 61.555 65.924"><defs><style>.a{stroke:#707070;opacity:0.85;fill:url(#a);}.b{fill:#fff;}</style><linearGradient id="a" x1="0.451" y1="-0.089" x2="0.575" y2="0.887" gradientUnits="objectBoundingBox"><stop offset="0" stop-color="#4a1aec"/><stop offset="1" stop-color="#3d07f3"/></linearGradient></defs><g transform="translate(-140.496 -1743.532)"><path class="a" d="M1222.788,280.627a49.608,49.608,0,0,1,38.787-23.975c27.64-2.443,18.936,46.728,13.285,53.447s-14.965,17.256-39.093,7.33S1222.788,280.627,1222.788,280.627Z" transform="translate(-1079.217 1487.469)"/><g transform="translate(152.815 1757.543)"><path class="b" d="M2.623,18.456a15.837,15.837,0,0,0,8.924,14.249L3.992,12.013a15.775,15.775,0,0,0-1.368,6.444Zm26.522-.8a8.315,8.315,0,0,0-1.305-4.366c-.8-1.3-1.555-2.409-1.555-3.712a2.743,2.743,0,0,1,2.661-2.81c.07,0,.137.008.205.013A15.827,15.827,0,0,0,5.228,9.76c.371.011.721.019,1.019.019,1.656,0,4.219-.2,4.219-.2a.654.654,0,0,1,.1,1.3s-.858.1-1.812.151l5.766,17.15,3.464-10.392L15.52,11.033c-.853-.05-1.66-.151-1.66-.151a.654.654,0,0,1,.1-1.3s2.615.2,4.17.2c1.656,0,4.219-.2,4.219-.2a.654.654,0,0,1,.1,1.3s-.86.1-1.812.151l5.722,17.018,1.582-5.275a19.107,19.107,0,0,0,1.205-5.119ZM18.734,19.841l-4.75,13.8a15.839,15.839,0,0,0,9.734-.253,1.365,1.365,0,0,1-.113-.218L18.738,19.841ZM32.35,10.86a12.174,12.174,0,0,1,.106,1.628,14.942,14.942,0,0,1-1.2,5.673L26.416,32.145A15.836,15.836,0,0,0,32.35,10.863ZM18.457,0A18.457,18.457,0,1,0,36.914,18.456,18.477,18.477,0,0,0,18.457,0Zm0,36.066a17.61,17.61,0,1,1,17.61-17.61A17.631,17.631,0,0,1,18.457,36.066Z"/></g></g></svg>